<svg xmlns="http://www.w3.org/2000/svg" viewBox="0 0 512 512" role="img" aria-label="Nisha Shetty monogram"><title>Nisha Shetty monogram</title><path fill="#E0102A" d="M56 132.2L425.9 93.3A30 30 0 0 1 458.9 120L482.7 346.8A30 30 0 0 1 456 379.8L86.1 418.7A30 30 0 0 1 53.1 392L29.3 165.2A30 30 0 0 1 56 132.2Z"/><path fill="#FFFFFF" d="M139.2 181.1L195.4 175.2L228.8 295.6L230.1 295.4L218.4 211.5L214.4 173.2L252.6 169.2L270.7 341.3L215 347.2L181.2 224.8L179.9 225L191.8 310.9L195.8 349.2L157.3 353.2L139.2 181.1ZM328.7 338.2Q321 339 314.4 338.5Q307.8 338 302.5 336.6Q297.1 335.2 292.9 333.3L286.4 295.5Q291.9 297.8 299.2 299.7Q306.5 301.5 314.9 300.7Q323.3 299.8 326.8 296Q330.4 292.2 329.7 286L329.5 283.8Q329 278.9 326.7 275.7Q324.5 272.5 320.5 269.4Q316.5 266.4 310.6 262.2Q301.2 255.5 294 248.7Q286.9 241.9 282.5 233.4Q278 225 276.8 213.6L276.5 210.5Q274.2 188.8 285 175.4Q295.7 162 317.9 159.6Q329.1 158.5 337.9 160.5Q346.7 162.6 352.6 165.9L358.8 202.1Q353.9 199.5 347.5 197.6Q341.2 195.7 333.2 196.5Q328.5 197 325.4 198.6Q322.3 200.2 321.1 202.9Q319.8 205.7 320.2 209.4L320.2 210.1Q320.7 214.4 323.1 217.8Q325.5 221.2 330.2 224.9Q335 228.5 342.2 233.6Q351.7 240.2 358.1 246.5Q364.4 252.8 368 260.6Q371.6 268.5 372.9 280.2L373.2 283.5Q375.7 307.3 364.7 321.5Q353.7 335.6 328.7 338.2Z"/></svg>
